<?xml version="1.0" encoding="utf-8"?>
<!-- Generator: Adobe Illustrator 24.1.2, SVG Export Plug-In . SVG Version: 6.00 Build 0)  -->
<svg version="1.1" id="Layer_1" xmlns="http://www.w3.org/2000/svg" xmlns:xlink="http://www.w3.org/1999/xlink" x="0px" y="0px"
	 viewBox="0 0 158.11 96.04" style="enable-background:new 0 0 158.11 96.04;" xml:space="preserve">
<style type="text/css">
	.st0{fill:#EEF4FB;}
</style>
<g>
	<g>
		<path class="st0" d="M138.86,52.6l-0.92-0.47l0.48-0.91c3.6-6.62,3.41-15.04-0.49-21.95c-1.82-3.22-4.71-6.02-8.16-7.9
			c-7.39-4.02-15.64-3.96-22.62,0.19l-1.16,0.69l-0.34-1.31C102.55,8.84,91.62,0.4,79.08,0.4c-2.85,0-5.63,0.42-8.05,1.22
			c-0.72,0.19-1.32,0.4-1.86,0.64l-0.86,0.3c-3.95,1.66-7.61,4.39-10.55,7.85c-1.79,2.18-3.17,4.47-4.06,6.8l-0.3,0.65
			c-0.33,0.9-0.64,1.89-0.95,3.09l-0.34,1.29l-1.16-0.68c-3.47-2.06-7.4-3.15-11.36-3.15c-12.43,0-22.53,10.08-22.53,22.47
			c0,3.52,0.88,7.11,2.57,10.36l0.46,0.9l-0.9,0.46C7.17,58.78,0,69.61,0,81.6c0,4.62,1.05,9.17,3.06,13.14
			c0.28,0.55,0.89,0.9,1.56,0.9h148.86c0.68,0,1.29-0.36,1.57-0.92c2-4.02,3.05-8.56,3.05-13.12
			C158.1,69.63,150.91,58.8,138.86,52.6z M30.72,84.07l0.02,0.17c0.05,0.38,0.1,0.79,0.18,1.12c0.38,2.1,0.84,3.83,1.42,5.36
			l0.51,1.37H5.72l-0.26-0.63c-1.27-3.12-1.92-6.44-1.92-9.86c0-11.51,7.64-21.87,19.92-27.04c0.45-0.21,0.85-0.66,0.99-1.13
			c0.15-0.56,0.06-1.09-0.26-1.54c-2.34-3.28-3.57-7.09-3.57-11.01c0-10.43,8.51-18.92,18.97-18.92c4.27,0,8.39,1.43,11.57,4.02
			l0.37,0.3v1.6c0,4.68,1.17,9.16,3.44,13.29l0.52,0.92l-0.95,0.48c-4.75,2.37-9.06,5.45-12.79,9.13l-2.03,2.25
			c-1.39,1.63-2.59,3.26-3.56,4.82c-0.98,1.45-1.91,3.16-2.85,5.23c-2.05,4.69-3.09,9.59-3.09,14.59
			C30.22,80.57,30.48,82.56,30.72,84.07z M124.15,82.09l-0.01,0.04c-0.03,0.23-0.07,0.44-0.12,0.65c-0.04,0.18-0.07,0.36-0.1,0.53
			c-0.1,0.69-0.22,1.47-0.4,2.3c-0.04,0.28-0.14,0.65-0.23,0.96c-0.04,0.13-0.08,0.27-0.11,0.4l-0.11,0.42
			c-0.14,0.52-0.3,1.06-0.48,1.61c-0.09,0.25-0.17,0.49-0.25,0.72c-0.08,0.24-0.17,0.49-0.25,0.71l-0.05,0.1
			c-0.15,0.29-0.3,0.6-0.39,0.87l-0.23,0.69H36.78l-0.27-0.56c-0.1-0.18-0.18-0.37-0.25-0.55c-0.06-0.16-0.12-0.3-0.2-0.45
			l-0.05-0.1c-0.08-0.22-0.17-0.47-0.25-0.71c-0.08-0.23-0.16-0.47-0.24-0.68c-0.28-0.8-0.46-1.49-0.6-2.07
			c-0.03-0.13-0.07-0.27-0.11-0.4c-0.09-0.31-0.19-0.68-0.24-1.05c-0.16-0.71-0.28-1.46-0.39-2.2c-0.02-0.13-0.04-0.25-0.06-0.37
			c-0.05-0.26-0.11-0.55-0.12-0.88c-0.15-1.04-0.22-2.16-0.22-3.48c0-4.53,0.93-8.95,2.76-13.13c0.81-1.67,1.66-3.27,2.56-4.79
			c1.18-1.76,2.24-3.19,3.29-4.39l1.91-2.13c3.96-3.96,8.83-7.18,14.52-9.62c0.51-0.23,0.9-0.65,1.05-1.14
			c0.13-0.52,0.04-1.1-0.27-1.56c-2.94-4.16-4.51-8.99-4.51-13.95c0-0.7,0.05-1.44,0.11-2.14c0.18-2.46,0.77-4.86,1.75-7.13
			c0.88-2.09,2.08-4.09,3.54-5.92c2.55-3.01,5.77-5.42,9.1-6.83l1.16-0.42c0.39-0.13,0.77-0.26,1.26-0.4
			c2.1-0.71,4.5-1.09,7.07-1.09c12.47,0,22.71,9.34,23.82,21.73l0.01,0.12c0.05,0.7,0.1,1.36,0.1,2.08c0,4.96-1.57,9.79-4.53,13.97
			c-0.31,0.42-0.39,0.98-0.24,1.56c0.14,0.47,0.53,0.89,1.04,1.12c5.47,2.3,10.3,5.51,14.37,9.52l2.02,2.14
			c0.97,1.12,1.94,2.43,3.29,4.43c1.12,1.77,1.93,3.29,2.55,4.8c1.86,4.17,2.81,8.61,2.81,13.17
			C124.32,79.78,124.26,80.94,124.15,82.09z M152.63,91.46l-0.25,0.63H125.7v-1.43l0.16-0.18c0.54-1.54,0.97-3.19,1.3-5.05
			c0.1-0.4,0.15-0.8,0.2-1.18l0.02-0.15c0.33-1.84,0.5-3.67,0.5-5.51c0-5.01-1.04-9.9-3.1-14.55c-0.72-1.74-1.66-3.52-2.83-5.32
			c-1.45-2.18-2.55-3.65-3.64-4.9l-2.1-2.27c-3.57-3.52-7.85-6.55-12.66-8.99l-0.93-0.47l0.51-0.92c2.27-4.13,3.44-8.61,3.44-13.29
			v-1.6l0.37-0.3c3.25-2.59,7.35-4.02,11.57-4.02c10.43,0,18.92,8.49,18.92,18.92c0,3.98-1.24,7.79-3.59,11.03
			c-0.29,0.41-0.38,1-0.24,1.54c0.14,0.51,0.51,0.9,1.02,1.1c12.3,5.2,19.94,15.56,19.94,27.05
			C154.56,85.02,153.91,88.34,152.63,91.46z"/>
		<g>
			<path class="st0" d="M151.56,81.6c0,2.57-0.41,5.08-1.24,7.49h-20.9c0.26-0.97,0.49-1.98,0.68-3.04
				c0.12-0.51,0.18-0.97,0.23-1.35v-0.05l0.01-0.09c0.36-2,0.54-4.01,0.54-5.97c0-5.42-1.12-10.71-3.34-15.73
				c-0.8-1.92-1.83-3.87-3.09-5.8c-1.48-2.23-2.68-3.84-3.88-5.21l-0.03-0.03l-0.03-0.04l-2.1-2.27l-0.04-0.05l-0.05-0.05
				c-3.34-3.29-7.25-6.17-11.65-8.59c1.93-4.09,2.9-8.43,2.9-12.94v-0.12c2.59-1.81,5.73-2.8,8.94-2.8
				c8.78,0,15.92,7.14,15.92,15.92c0,3.34-1.04,6.55-3.04,9.3c-0.8,1.12-1.06,2.63-0.68,4.06c0.38,1.41,1.39,2.53,2.77,3.08
				C144.63,62.05,151.56,71.35,151.56,81.6z"/>
		</g>
		<g>
			<path class="st0" d="M121.32,78.59c0,1.01-0.05,2-0.14,3.04l-0.01,0.11c-0.02,0.12-0.04,0.22-0.08,0.39
				c-0.04,0.2-0.08,0.39-0.11,0.58l-0.01,0.08l-0.01,0.04l-0.01,0.05c-0.09,0.66-0.2,1.37-0.36,2.09l-0.03,0.13l-0.01,0.08
				c0,0.03-0.03,0.16-0.13,0.51c-0.05,0.18-0.11,0.37-0.15,0.56l-0.1,0.36c-0.12,0.47-0.27,0.95-0.42,1.42
				c-0.06,0.16-0.11,0.32-0.17,0.48l-0.09,0.26c-0.03,0.11-0.07,0.21-0.11,0.32H38.72c-0.04-0.11-0.08-0.23-0.13-0.36l-0.05-0.16
				c-0.07-0.19-0.13-0.38-0.2-0.55c-0.23-0.68-0.39-1.27-0.5-1.72c-0.04-0.2-0.1-0.41-0.15-0.57c-0.04-0.12-0.12-0.41-0.15-0.61
				l-0.01-0.13l-0.03-0.13c-0.14-0.63-0.25-1.32-0.35-2c-0.03-0.14-0.05-0.27-0.07-0.4l-0.01-0.04v-0.04l-0.01-0.05
				C37.03,82.19,37,82.05,37,81.98l-0.01-0.17l-0.02-0.17c-0.13-0.89-0.19-1.86-0.19-3.05c0-4.09,0.84-8.09,2.49-11.87
				c0.77-1.59,1.57-3.09,2.37-4.45c1.14-1.69,2.09-2.97,2.98-3.99l1.86-2.07c3.66-3.64,8.21-6.64,13.52-8.92l0.03-0.01l0.02-0.02
				c1.31-0.58,2.29-1.68,2.69-2.99l0.02-0.08l0.02-0.07c0.34-1.36,0.09-2.81-0.69-3.97l-0.02-0.02l-0.02-0.03
				c-2.59-3.67-3.96-7.89-3.96-12.22c0-0.65,0.05-1.35,0.1-1.92c0.16-2.12,0.67-4.2,1.52-6.19c0.77-1.81,1.81-3.56,3.1-5.17
				c2.21-2.61,5.01-4.72,7.88-5.95l1.05-0.38l0.09-0.03c0.31-0.1,0.62-0.21,1-0.32L72.9,7.9l0.07-0.02
				c1.83-0.62,3.89-0.93,6.11-0.93c10.91,0,19.86,8.17,20.83,18.98l0.01,0.08l0.01,0.11c0.04,0.64,0.08,1.18,0.08,1.76
				c0,4.32-1.37,8.55-3.97,12.22c-0.82,1.14-1.08,2.61-0.7,4.06l0.01,0.05l0.01,0.06c0.4,1.31,1.37,2.4,2.69,2.99l0.03,0.02
				l0.04,0.02c5.08,2.13,9.58,5.11,13.39,8.85l1.93,2.05c0.87,1,1.74,2.19,3.01,4.06c1.02,1.61,1.74,2.98,2.28,4.3l0.02,0.04
				l0.02,0.04C120.46,70.44,121.32,74.46,121.32,78.59z"/>
		</g>
		<g>
			<path class="st0" d="M51.42,40.81c-4.33,2.37-8.28,5.31-11.78,8.75l-0.06,0.07l-0.06,0.06l-2.03,2.25l-0.03,0.03L37.44,52
				c-1.47,1.72-2.74,3.45-3.8,5.14c-1.06,1.57-2.06,3.41-3.08,5.66c-2.22,5.07-3.34,10.38-3.34,15.79c0,1.72,0.17,3.64,0.53,5.89
				l0.02,0.15l0.01,0.1c0.05,0.38,0.1,0.81,0.2,1.24c0.21,1.12,0.44,2.15,0.69,3.12H7.78c-0.83-2.4-1.24-4.91-1.24-7.49
				c0-10.28,6.93-19.58,18.08-24.28l0.06-0.02l0.05-0.02c1.24-0.58,2.21-1.7,2.6-2.99l0.01-0.04l0.01-0.04
				c0.38-1.43,0.13-2.87-0.72-4.06c-1.97-2.76-3.01-5.97-3.01-9.27c0-8.78,7.16-15.92,15.97-15.92c3.26,0,6.4,0.98,8.94,2.79v0.13
				C48.53,32.38,49.5,36.71,51.42,40.81z"/>
		</g>
	</g>
</g>
</svg>
